<svg width="375" height="471" fill="none" xmlns="http://www.w3.org/2000/svg"><path d="M25.568-7C34.091 5.07 29.83 21.97 0 29.212M59.66-7C75.283 11.106 85.226 51.664 0 69.045M144.887-7c-7.103 31.384-45.17 94.876-140.625 97.773M208.807-7C197.443 26.798 140.625 99.463 4.262 119.742M285.511-7c-42.613 41.04-133.807 123.121-157.67 123.121-23.864 0-95.17 70.01-127.841 105.015M370.738-7C157.67 102.843-181.534 352.224 166.193 471M0 420.302c7.102 15.692 28.977 47.8 59.659 50.697M375 36.455C196.023 136.64-55.397 310.942 370.739 206.65m0-133.983c-100.852 56.732-281.25 188.303 0 105.015M370.738 232c-171.875 16.899-375 94.151-149.148 239M375 275.454c-110.796 10.864-319.602 21.728-127.841 191.925m123.579-148.47c-82.386 3.622-242.897-18.106-98.011 152.091m98.012-119.5c-53.978 8.449-166.194-28.97-68.182 119.499M375 388.469c-36.116 6.55-103.833-43.231-45.145 82.53m32.361.001h8.523" stroke="#F1DED0" stroke-opacity=".29" stroke-width=".5" stroke-linecap="round"/></svg>