<svg width="114" height="114" fill="none" xmlns="http://www.w3.org/2000/svg"><path d="M97.01 2.74C47.5 42.567-29.596 104.683 111.808 69.606m-6.577-66.318c-35.808 32.885-98.654 89.337 6.577 58.097m-.548-50.424c-25.03 23.02-60.07 64.345 0 43.299m.548-25.212c-10.414 8.221-31.24 31.24 0 15.894" stroke="#6C200B" stroke-linecap="round"/><path d="M2.74 80.567c-1.644-7.307 5.81-24.882 24.664-36.72C50.97 29.047 54.808 36.172 82.76 2.74M2.74 48.23C37.817 32.886 89.994 1.426 18.087 2.74m-7.674.548c21.924 4.02 59.74 11.51-8.22 37.818m-.001-26.308c19.183 1.462 50.423 2.192 0 15.346" stroke="#6C200B" stroke-linecap="round"/><path d="M111.26 83.308c-12.789 0-45.272.548-57.549 11.51-12.276 10.961-39.096-6.212-51.519-16.443m63.029 32.885c4.567-9.135 9.317-26.856 46.039-20.28m-27.404 20.28c.913-8.77 3.836-24.116 27.404-13.154M3.288 95.913c13.154.366 46.039 6.577 16.443 15.347M2.74 103.586c9.135-1.644 30.145-1.644 9.866 7.674" stroke="#6C200B" stroke-linecap="round"/><rect x="2" y="2" width="110" height="110" rx="9" stroke="#6C200B" stroke-width="4"/></svg>